<?xml version="1.0" encoding="UTF-8"?>
<svg id="_图层_1" data-name="图层_1" xmlns="http://www.w3.org/2000/svg" version="1.1" viewBox="0 0 48 48">
  <!-- Generator: Adobe Illustrator 29.6.0, SVG Export Plug-In . SVG Version: 2.1.1 Build 207)  -->
  <defs>
    <style>
      .st0 {
        stroke: #8eef97;
        stroke-linecap: round;
        stroke-linejoin: round;
        stroke-width: 4px;
      }

      .st0, .st1 {
        fill: none;
      }

      .st2 {
        fill: #8eef97;
      }
    </style>
  </defs>
  <path class="st1" d="M22,26.8h24v24h-24v-24Z"/>
  <g>
    <path class="st0" d="M33.8,39.7c0,1.4,1.1,2.6,2.6,2.6h5.1c1.4,0,2.6-1.1,2.6-2.6v-15.3c0-1.4-1.1-2.6-2.6-2.6h-5.1c-1.4,0-2.6,1.1-2.6,2.6v5.1c0,1.4,1.1,2.6,2.6,2.6h7.7"/>
    <path class="st0" d="M16.7,21.8h6.4c2.1,0,3.8,1.7,3.8,3.8v2.6c0,2.1-1.7,3.8-3.8,3.8h-3.8,3.8c2.1,0,3.8,1.7,3.8,3.8v2.6c0,2.1-1.7,3.8-3.8,3.8h-6.4"/>
  </g>
  <g>
    <rect class="st2" x="34" y="4" width="2" height="12.5"/>
    <rect class="st2" x="26" y="4" width="6" height="12.5"/>
    <rect class="st2" x="40" y="4" width="6" height="12.5"/>
    <rect class="st2" x="20" y="4" width="4" height="12.5"/>
    <rect class="st2" x="2" y="4" width="4.2" height="28"/>
    <rect class="st2" x="8" y="4" width="4" height="28"/>
    <rect class="st2" x="14" y="4" width="2" height="12.5"/>
  </g>
</svg>